<svg width="130" height="49" viewBox="0 0 130 49" fill="none" xmlns="http://www.w3.org/2000/svg">
<path d="M0 22.7141H4.16001L8.97344 29.6896L13.9796 22.7141H18.1396V41.0709H13.9796V29.3238L9.45695 35.3439H8.3166L4.16001 29.3238V41.0709H0V22.7141Z" fill="#1F2225"/>
<path d="M25.1696 34.16L19.3857 22.9114V22.713H23.6632L27.4161 30.5909L31.3355 22.713H35.3507V22.9114L29.2795 34.16V41.176H25.1742V34.16" fill="#1F2225"/>
<path d="M35.3506 32.8848V31.0039C35.3506 25.7257 38.9929 22.7128 44.1074 22.7128C45.7786 22.6948 47.442 22.9469 49.0348 23.4594V28.7387H45.3925V26.4723C44.8445 26.3761 44.2904 26.3198 43.7345 26.3039C40.9976 26.3039 39.5539 27.9921 39.5539 30.8112V32.8883C39.5539 35.6127 41.0957 37.5882 43.7345 37.5882H44.8326C46.1998 37.5347 47.5523 37.2833 48.849 36.8416H49.0348V40.3369C47.6858 40.8378 46.2674 41.1208 44.8315 41.1758H43.7333C38.5493 41.1758 35.3506 38.2587 35.3506 32.8848Z" fill="#1F2225"/>
<path d="M59.299 41.1767C54.1514 41.1767 51.3165 38.0011 51.3165 32.2348V31.4628C51.1631 29.1378 51.8691 26.838 53.2973 25.01C54.075 24.2121 55.014 23.5938 56.0499 23.1975C57.0858 22.8011 58.1942 22.6361 59.299 22.7137C60.4024 22.6373 61.509 22.8029 62.5433 23.1992C63.5775 23.5955 64.515 24.2132 65.2916 25.01C66.7244 26.8359 67.4338 29.1364 67.2815 31.4628V32.2348C67.2815 38.0011 64.4466 41.1767 59.299 41.1767ZM59.299 26.3047C58.7153 26.2484 58.1273 26.3506 57.5955 26.6006C57.0637 26.8507 56.6075 27.2397 56.2736 27.7275C55.6684 28.8729 55.3979 30.1688 55.4936 31.464V32.236C55.407 33.5638 55.6765 34.8907 56.2736 36.0763C56.5933 36.5837 57.0444 36.9926 57.5779 37.2586C58.1113 37.5245 58.7066 37.6372 59.299 37.5845C59.8915 37.6371 60.4869 37.5242 61.0203 37.2581C61.5538 36.9919 62.0048 36.5828 62.3244 36.0751C62.9215 34.8895 63.191 33.5627 63.1044 32.2348V31.4628C63.2001 30.1677 62.9296 28.8717 62.3244 27.7264C61.9904 27.2388 61.5341 26.85 61.0023 26.6001C60.4706 26.3503 59.8826 26.2483 59.299 26.3047Z" fill="#1F2225"/>
<path d="M75.2635 24.7323H69.5618V22.713H83.246V24.7323H77.5442V41.176H75.2635V24.7323Z" fill="#1F2225"/>
<path d="M85.5261 36.1783V22.713H95.7893V24.7323H87.8068V30.3936H95.0116V32.436H87.8068V36.3756C87.8068 38.2958 88.7556 39.1577 90.2632 39.1577H95.7893V41.176H90.4627C87.2287 41.176 85.5261 39.6251 85.5261 36.1783Z" fill="#1F2225"/>
<path d="M98.9828 41.176H96.9302V40.9775C97.5448 38.1077 97.9964 36.3941 98.5689 34.2247L98.8129 33.3015C99.7838 29.6976 100.983 26.1607 102.404 22.713L105.141 22.713C106.582 26.1543 107.789 29.6913 108.755 33.2992L108.976 34.1404C109.555 36.3329 110.011 38.0707 110.616 40.9787V41.176H108.578C108.225 39.5201 107.917 38.1665 107.551 36.6468H100.017C99.6818 37.945 99.407 39.1912 98.9828 41.176ZM103.772 24.632C102.563 27.4328 101.589 30.3318 100.861 33.298C100.747 33.7008 100.633 34.1485 100.533 34.6274H107.025C106.971 34.437 106.923 34.2304 106.873 34.0123C106.823 33.7942 106.759 33.5392 106.696 33.298C105.967 30.3318 104.993 27.4329 103.784 24.632H103.772Z" fill="#1F2225"/>
<path d="M114.358 22.0105H116.202L122.113 30.4885L128.024 22.0105H129.867V39.922H127.644V26.0239L122.491 33.2118H121.475L116.581 26.2143V39.922H114.358V22.0105Z" fill="#1F2225"/>
<path d="M35.3691 16.1404C35.4049 11.8473 37.1153 7.74223 40.128 4.71921C43.1407 1.69618 47.2116 0 51.4544 0C55.6972 0 59.7681 1.69618 62.7808 4.71921C65.7935 7.74223 67.5039 11.8473 67.5397 16.1404H35.3691Z" fill="#57A09F"/>
<path d="M75.2632 48.0996H78.6842V44.6378H75.2632V48.0996Z" fill="#1F2225"/>
<path d="M87.8071 48.0996H91.2282V44.6378H87.8071V48.0996Z" fill="#1F2225"/>
<path d="M101.491 48.0996H104.912V44.6378H101.491V48.0996Z" fill="#1F2225"/>
<path d="M115.176 48.0996H118.597V44.6378H115.176V48.0996Z" fill="#1F2225"/>
<path d="M126.579 48.0996H130V44.6378H126.579V48.0996Z" fill="#1F2225"/>
</svg>
